<?xml version="1.0" encoding="UTF-8"?>
<svg version="1.1" xmlns="http://www.w3.org/2000/svg" width="318" height="159">
<path d="M0 0 C2.97 0 5.94 0 9 0 C9 0.66 9 1.32 9 2 C9.66 2 10.32 2 11 2 C11 1.34 11 0.68 11 0 C12.98 0 14.96 0 17 0 C17 18.15 17 36.3 17 55 C11.39 55 5.78 55 0 55 C0 36.85 0 18.7 0 0 Z " fill="#5F5F5F" transform="translate(51,52)"/>
<path d="M0 0 C3.96 0 7.92 0 12 0 C12.19569589 2.56211075 12.38180612 5.12432391 12.5625 7.6875 C12.61857422 8.40873047 12.67464844 9.12996094 12.73242188 9.87304688 C13.11543363 15.46501845 13.11543363 15.46501845 12.51367188 18.25390625 C11.84683067 21.81884439 11.87638006 25.31439666 11.90234375 28.92578125 C11.90446617 30.04716743 11.90446617 30.04716743 11.90663147 31.19120789 C11.91220236 33.56501365 11.9247494 35.93872303 11.9375 38.3125 C11.94251877 39.92773301 11.94708101 41.5429675 11.95117188 43.15820312 C11.96216225 47.10550555 11.97940668 51.05273647 12 55 C8.04 55 4.08 55 0 55 C0 36.85 0 18.7 0 0 Z " fill="#2F2F2F" transform="translate(36,52)"/>
<path d="M0 0 C3.63 0 7.26 0 11 0 C11 18.15 11 36.3 11 55 C7.37 55 3.74 55 0 55 C0 36.85 0 18.7 0 0 Z " fill="#6E6E6E" transform="translate(204,52)"/>
<path d="M0 0 C3.3 0 6.6 0 10 0 C10 18.15 10 36.3 10 55 C6.7 55 3.4 55 0 55 C0 36.85 0 18.7 0 0 Z M4 46 C5 48 5 48 5 48 Z " fill="#2D2D2D" transform="translate(151,52)"/>
<path d="M0 0 C2.97 0 5.94 0 9 0 C9 18.15 9 36.3 9 55 C6.03 55 3.06 55 0 55 C0 36.85 0 18.7 0 0 Z " fill="#808080" transform="translate(74,52)"/>
<path d="M0 0 C2.64 0 5.28 0 8 0 C8 18.15 8 36.3 8 55 C5.36 55 2.72 55 0 55 C0 36.85 0 18.7 0 0 Z " fill="#676767" transform="translate(191,52)"/>
<path d="M0 0 C2.97 0 5.94 0 9 0 C9 18.15 9 36.3 9 55 C6.03 55 3.06 55 0 55 C0 36.85 0 18.7 0 0 Z M6 38 C6 42.95 6 47.9 6 53 C6.33 53 6.66 53 7 53 C7 48.05 7 43.1 7 38 C6.67 38 6.34 38 6 38 Z " fill="#494949" transform="translate(235,52)"/>
<path d="M0 0 C2.31 0 4.62 0 7 0 C7 18.15 7 36.3 7 55 C4.69 55 2.38 55 0 55 C0 36.85 0 18.7 0 0 Z " fill="#4E4E4E" transform="translate(183,52)"/>
<path d="M0 0 C2.31 0 4.62 0 7 0 C7 18.15 7 36.3 7 55 C4.69 55 2.38 55 0 55 C0 36.85 0 18.7 0 0 Z " fill="#020202" transform="translate(265,52)"/>
<path d="M0 0 C2.31 0 4.62 0 7 0 C7 18.15 7 36.3 7 55 C4.69 55 2.38 55 0 55 C0 36.85 0 18.7 0 0 Z " fill="#464646" transform="translate(164,52)"/>
<path d="M0 0 C1.98 0 3.96 0 6 0 C6 18.15 6 36.3 6 55 C4.02 55 2.04 55 0 55 C0 36.85 0 18.7 0 0 Z " fill="#292829" transform="translate(62,52)"/>
<path d="M0 0 C1.98 0 3.96 0 6 0 C6 18.15 6 36.3 6 55 C4.02 55 2.04 55 0 55 C0 36.85 0 18.7 0 0 Z M2 1 C3 3 3 3 3 3 Z " fill="#444444" transform="translate(85,52)"/>
<path d="M0 0 C1.98 0 3.96 0 6 0 C6.19569589 2.56211075 6.38180612 5.12432391 6.5625 7.6875 C6.61857422 8.40873047 6.67464844 9.12996094 6.73242188 9.87304688 C7.11543363 15.46501845 7.11543363 15.46501845 6.51367188 18.25390625 C5.84683067 21.81884439 5.87638006 25.31439666 5.90234375 28.92578125 C5.9037587 29.67337204 5.90517365 30.42096283 5.90663147 31.19120789 C5.91220236 33.56501365 5.9247494 35.93872303 5.9375 38.3125 C5.94251877 39.92773301 5.94708101 41.5429675 5.95117188 43.15820312 C5.96216225 47.10550555 5.97940668 51.05273647 6 55 C4.02 55 2.04 55 0 55 C0 36.85 0 18.7 0 0 Z " fill="#7A7A7A" transform="translate(42,52)"/>
<path d="M0 0 C2.31 0 4.62 0 7 0 C7 18.15 7 36.3 7 55 C4.69 55 2.38 55 0 55 C0 36.85 0 18.7 0 0 Z " fill="#474747" transform="translate(93,52)"/>
<path d="M0 0 C1.65 0 3.3 0 5 0 C5 18.15 5 36.3 5 55 C3.35 55 1.7 55 0 55 C-0.16874019 48.77459649 -0.32917054 42.54905229 -0.48217773 36.32324219 C-0.53527771 34.20892697 -0.59057821 32.09466575 -0.64819336 29.98046875 C-0.73100603 26.92720176 -0.80568758 23.87382287 -0.87890625 20.8203125 C-0.90594131 19.88760529 -0.93297638 18.95489807 -0.96083069 17.993927 C-1.09642957 11.92000786 -0.74405889 6.0293462 0 0 Z " fill="#303030" transform="translate(106,52)"/>
<path d="M0 0 C1.65 0 3.3 0 5 0 C5 18.15 5 36.3 5 55 C3.35 55 1.7 55 0 55 C0 36.85 0 18.7 0 0 Z " fill="#636363" transform="translate(228,52)"/>
<path d="M0 0 C1.65 0 3.3 0 5 0 C5 18.15 5 36.3 5 55 C3.35 55 1.7 55 0 55 C0 36.85 0 18.7 0 0 Z " fill="#454545" transform="translate(116,52)"/>
<path d="M0 0 C1.65 0 3.3 0 5 0 C5 18.15 5 36.3 5 55 C3.35 55 1.7 55 0 55 C0 36.85 0 18.7 0 0 Z " fill="#4D4D4D" transform="translate(273,52)"/>
<path d="M0 0 C1.65 0 3.3 0 5 0 C5 18.15 5 36.3 5 55 C3.35 55 1.7 55 0 55 C0 36.85 0 18.7 0 0 Z " fill="#737373" transform="translate(151,52)"/>
<path d="M0 0 C1.32 0 2.64 0 4 0 C4 18.15 4 36.3 4 55 C2.35 55 0.7 55 -1 55 C-1.10451547 36.63904406 -1.18006591 18.33316688 0 0 Z " fill="#404040" transform="translate(145,52)"/>
<path d="M0 0 C1.65 0 3.3 0 5 0 C5 18.15 5 36.3 5 55 C3.35 55 1.7 55 0 55 C0 36.85 0 18.7 0 0 Z " fill="#454545" transform="translate(220,52)"/>
<path d="M0 0 C1.32 0 2.64 0 4 0 C4 18.15 4 36.3 4 55 C2.68 55 1.36 55 0 55 C-0.16830406 47.81021608 -0.32817993 40.62028027 -0.48217773 33.43017578 C-0.53557055 30.98384348 -0.59089777 28.5375526 -0.64819336 26.09130859 C-0.73017974 22.57658826 -0.80522472 19.06177802 -0.87890625 15.546875 C-0.90594131 14.4519574 -0.93297638 13.35703979 -0.96083069 12.22894287 C-0.98092697 11.20818665 -1.00102325 10.18743042 -1.02172852 9.13574219 C-1.04171402 8.23861511 -1.06169952 7.34148804 -1.08229065 6.41717529 C-1.00410089 4.12045796 -0.65215213 2.1959121 0 0 Z " fill="#404040" transform="translate(136,52)"/>
<path d="M0 0 C1.32 0 2.64 0 4 0 C4 18.15 4 36.3 4 55 C2.68 55 1.36 55 0 55 C0 36.85 0 18.7 0 0 Z " fill="#8B8B8B" transform="translate(211,52)"/>
<path d="M0 0 C0.99 0 1.98 0 3 0 C4.19915828 11.83653002 3.92555857 23.50474302 3.5625 35.375 C3.50913408 37.28644081 3.45639537 39.19789923 3.40429688 41.109375 C3.2767484 45.73981787 3.14075942 50.36994068 3 55 C2.01 55 1.02 55 0 55 C0 36.85 0 18.7 0 0 Z " fill="#4B4B4B" transform="translate(69,52)"/>
<path d="M0 0 C1.32 0.33 2.64 0.66 4 1 C4 18.82 4 36.64 4 55 C2.68 55 1.36 55 0 55 C0 36.85 0 18.7 0 0 Z " fill="#585858" transform="translate(164,52)"/>
<path d="M0 0 C0.99 0 1.98 0 3 0 C3 18.15 3 36.3 3 55 C2.01 55 1.02 55 0 55 C-0.16896321 48.93533182 -0.3293647 42.87051657 -0.48217773 36.80541992 C-0.53522012 34.74644022 -0.59051452 32.68751715 -0.64819336 30.62866211 C-0.73117058 27.65230523 -0.80577795 24.67583203 -0.87890625 21.69921875 C-0.90594131 20.7935466 -0.93297638 19.88787445 -0.96083069 18.95475769 C-1.10657569 12.57210515 -0.69694859 6.34454498 0 0 Z " fill="#454545" transform="translate(259,52)"/>
<path d="M0 0 C0.99 0 1.98 0 3 0 C3 18.15 3 36.3 3 55 C2.01 55 1.02 55 0 55 C0 36.85 0 18.7 0 0 Z " fill="#808080" transform="translate(101,52)"/>
<path d="M0 0 C0.99 0 1.98 0 3 0 C3 18.15 3 36.3 3 55 C2.01 55 1.02 55 0 55 C0 36.85 0 18.7 0 0 Z " fill="#7C7C7C" transform="translate(289,52)"/>
<path d="M0 0 C0.99 0 1.98 0 3 0 C3 18.15 3 36.3 3 55 C2.01 55 1.02 55 0 55 C0 36.85 0 18.7 0 0 Z " fill="#B7B7B6" transform="translate(74,52)"/>
<path d="M0 0 C0.99 0 1.98 0 3 0 C3 18.15 3 36.3 3 55 C2.01 55 1.02 55 0 55 C0 36.85 0 18.7 0 0 Z " fill="#343434" transform="translate(208,52)"/>
<path d="M0 0 C0.99 0 1.98 0 3 0 C3 18.15 3 36.3 3 55 C2.01 55 1.02 55 0 55 C0 36.85 0 18.7 0 0 Z " fill="#888888" transform="translate(187,52)"/>
<path d="M0 0 C0.99 0 1.98 0 3 0 C3 18.15 3 36.3 3 55 C2.01 55 1.02 55 0 55 C0 36.85 0 18.7 0 0 Z " fill="#747474" transform="translate(265,52)"/>
<path d="M0 0 C0.99 0 1.98 0 3 0 C3 18.15 3 36.3 3 55 C2.01 55 1.02 55 0 55 C0 36.85 0 18.7 0 0 Z " fill="#454545" transform="translate(216,52)"/>
<path d="M0 0 C0.99 0 1.98 0 3 0 C3 18.15 3 36.3 3 55 C2.01 55 1.02 55 0 55 C0 36.85 0 18.7 0 0 Z " fill="#7C7C7C" transform="translate(122,52)"/>
<path d="M0 0 C0.99 0 1.98 0 3 0 C3 18.15 3 36.3 3 55 C2.01 55 1.02 55 0 55 C0 36.85 0 18.7 0 0 Z " fill="#262626" transform="translate(245,52)"/>
<path d="M0 0 C0.99 0 1.98 0 3 0 C3 18.15 3 36.3 3 55 C2.01 55 1.02 55 0 55 C0 36.85 0 18.7 0 0 Z " fill="#323232" transform="translate(196,52)"/>
<path d="M0 0 C0.99 0 1.98 0 3 0 C3 18.15 3 36.3 3 55 C2.01 55 1.02 55 0 55 C0 36.85 0 18.7 0 0 Z " fill="#080808" transform="translate(126,52)"/>
<path d="M0 0 C0.99 0 1.98 0 3 0 C3 18.15 3 36.3 3 55 C2.01 55 1.02 55 0 55 C0 36.85 0 18.7 0 0 Z " fill="#0D0D0D" transform="translate(77,52)"/>
<path d="M0 0 C0.99 0.33 1.98 0.66 3 1 C3 18.82 3 36.64 3 55 C2.01 55 1.02 55 0 55 C0 36.85 0 18.7 0 0 Z " fill="#6D6D6D" transform="translate(36,52)"/>
<path d="M0 0 C0.99 0 1.98 0 3 0 C3 18.15 3 36.3 3 55 C2.01 55 1.02 55 0 55 C0 36.85 0 18.7 0 0 Z " fill="#636464" transform="translate(178,52)"/>
<path d="M0 0 C1.77179727 3.05894603 2.24597983 5.24775135 2.22705078 8.76855469 C2.22689972 9.70922791 2.22674866 10.64990112 2.22659302 11.61907959 C2.21627045 12.62650208 2.20594788 13.63392456 2.1953125 14.671875 C2.1924826 15.70942932 2.18965271 16.74698364 2.18673706 17.815979 C2.17554865 21.12743701 2.15044627 24.43862384 2.125 27.75 C2.11496848 29.99608984 2.10584293 32.24218393 2.09765625 34.48828125 C2.0756137 39.99227991 2.04214932 45.49612058 2 51 C1.01 51 0.02 51 -1 51 C-1.02526787 43.89755001 -1.04283201 36.79511152 -1.05493164 29.69262695 C-1.05997349 27.27432828 -1.06680678 24.85603267 -1.07543945 22.43774414 C-1.08751157 18.97020717 -1.09322963 15.50271034 -1.09765625 12.03515625 C-1.10281754 10.94662857 -1.10797882 9.85810089 -1.11329651 8.73658752 C-1.11337204 7.73562546 -1.11344757 6.73466339 -1.11352539 5.70336914 C-1.115746 4.81734512 -1.11796661 3.93132111 -1.12025452 3.01844788 C-1 1 -1 1 0 0 Z " fill="#787878" transform="translate(27,56)"/>
<path d="M0 0 C0.99 0 1.98 0 3 0 C3 18.15 3 36.3 3 55 C2.01 55 1.02 55 0 55 C0 36.85 0 18.7 0 0 Z " fill="#1C1C1C" transform="translate(254,52)"/>
<path d="M0 0 C0.66 0 1.32 0 2 0 C2.84096984 18.41170931 3.09029046 36.58126092 2 55 C1.34 55 0.68 55 0 55 C0 36.85 0 18.7 0 0 Z " fill="#767676" transform="translate(51,52)"/>
<path d="M0 0 C0.66 0 1.32 0 2 0 C2.17061402 5.10023712 2.33077092 10.20067017 2.48217773 15.30151367 C2.53480106 17.02848657 2.59004261 18.75538212 2.64819336 20.48217773 C3.03579 32.05952078 2.89747882 43.44882052 2 55 C1.34 55 0.68 55 0 55 C0 36.85 0 18.7 0 0 Z " fill="#707070" transform="translate(250,52)"/>
<path d="M0 0 C0.66 0 1.32 0 2 0 C2 18.15 2 36.3 2 55 C1.34 55 0.68 55 0 55 C0 36.85 0 18.7 0 0 Z " fill="#424242" transform="translate(141,52)"/>
<path d="M0 0 C0.66 0 1.32 0 2 0 C2 18.15 2 36.3 2 55 C1.34 55 0.68 55 0 55 C0 36.85 0 18.7 0 0 Z " fill="#8A8A8A" transform="translate(285,52)"/>
<path d="M0 0 C0.66 0 1.32 0 2 0 C2 18.15 2 36.3 2 55 C1.34 55 0.68 55 0 55 C0 36.85 0 18.7 0 0 Z " fill="#AFAFAF" transform="translate(281,52)"/>
<path d="M0 0 C0.66 0 1.32 0 2 0 C2 18.15 2 36.3 2 55 C1.34 55 0.68 55 0 55 C0 36.85 0 18.7 0 0 Z " fill="#434343" transform="translate(201,52)"/>
<path d="M0 0 C0.66 0 1.32 0 2 0 C2 18.15 2 36.3 2 55 C1.34 55 0.68 55 0 55 C0 36.85 0 18.7 0 0 Z " fill="#9E9E9E" transform="translate(172,52)"/>
<path d="M0 0 C0.66 0 1.32 0 2 0 C2 18.15 2 36.3 2 55 C1.34 55 0.68 55 0 55 C0 36.85 0 18.7 0 0 Z " fill="#252525" transform="translate(131,52)"/>
<path d="M0 0 C0.66 0 1.32 0 2 0 C2 17.16 2 34.32 2 52 C1.34 52 0.68 52 0 52 C0 34.84 0 17.68 0 0 Z " fill="#A3A3A3" transform="translate(33,55)"/>
<path d="M0 0 C0.33 0 0.66 0 1 0 C1.83739691 12.55812149 2.12871731 25.04121214 2.0625 37.625 C2.05746407 39.32551948 2.05290494 41.02604045 2.04882812 42.7265625 C2.03801324 46.81774621 2.02086991 50.90885574 2 55 C1.34 55 0.68 55 0 55 C0 36.85 0 18.7 0 0 Z " fill="#878787" transform="translate(113,52)"/>
<path d="M0 0 C0.33 0 0.66 0 1 0 C1 18.15 1 36.3 1 55 C0.67 55 0.34 55 0 55 C0 36.85 0 18.7 0 0 Z " fill="#585858" transform="translate(176,52)"/>
<path d="M0 0 C0.33 0 0.66 0 1 0 C1 18.15 1 36.3 1 55 C0.67 55 0.34 55 0 55 C0 36.85 0 18.7 0 0 Z " fill="#575757" transform="translate(279,52)"/>
<path d="M0 0 C0.66 0 1.32 0 2 0 C2 16.83 2 33.66 2 51 C1.67 51 1.34 51 1 51 C0.67 34.17 0.34 17.34 0 0 Z " fill="#4A4A4A" transform="translate(30,56)"/>
<path d="" fill="#FFFFFF" transform="translate(0,0)"/>
<path d="" fill="#FFFFFF" transform="translate(0,0)"/>
<path d="" fill="#FFFFFF" transform="translate(0,0)"/>
<path d="" fill="#FFFFFF" transform="translate(0,0)"/>
<path d="" fill="#FFFFFF" transform="translate(0,0)"/>
<path d="" fill="#FFFFFF" transform="translate(0,0)"/>
<path d="" fill="#FFFFFF" transform="translate(0,0)"/>
<path d="" fill="#FFFFFF" transform="translate(0,0)"/>
<path d="" fill="#FFFFFF" transform="translate(0,0)"/>
<path d="" fill="#FFFFFF" transform="translate(0,0)"/>
<path d="" fill="#FEFFFF" transform="translate(0,0)"/>
<path d="" fill="#FFFFFF" transform="translate(0,0)"/>
<path d="" fill="#FFFFFF" transform="translate(0,0)"/>
<path d="" fill="#FFFFFF" transform="translate(0,0)"/>
<path d="" fill="#FFFFFF" transform="translate(0,0)"/>
<path d="" fill="#FFFFFF" transform="translate(0,0)"/>
<path d="" fill="#FFFFFF" transform="translate(0,0)"/>
<path d="" fill="#FFFFFF" transform="translate(0,0)"/>
<path d="" fill="#FFFFFF" transform="translate(0,0)"/>
<path d="" fill="#FFFFFF" transform="translate(0,0)"/>
<path d="" fill="#FFFFFF" transform="translate(0,0)"/>
<path d="" fill="#FFFFFF" transform="translate(0,0)"/>
<path d="" fill="#FFFFFF" transform="translate(0,0)"/>
<path d="" fill="#FFFFFF" transform="translate(0,0)"/>
<path d="" fill="#FFFFFF" transform="translate(0,0)"/>
<path d="" fill="#FFFFFF" transform="translate(0,0)"/>
<path d="" fill="#FFFFFF" transform="translate(0,0)"/>
<path d="" fill="#FFFFFF" transform="translate(0,0)"/>
<path d="" fill="#FFFFFF" transform="translate(0,0)"/>
<path d="" fill="#FFFFFF" transform="translate(0,0)"/>
<path d="" fill="#FFFFFF" transform="translate(0,0)"/>
<path d="" fill="#FFFFFF" transform="translate(0,0)"/>
<path d="" fill="#FFFFFF" transform="translate(0,0)"/>
<path d="" fill="#FFFFFF" transform="translate(0,0)"/>
<path d="" fill="#FFFFFF" transform="translate(0,0)"/>
<path d="" fill="#FFFFFF" transform="translate(0,0)"/>
<path d="" fill="#FFFFFF" transform="translate(0,0)"/>
<path d="" fill="#FFFFFF" transform="translate(0,0)"/>
<path d="" fill="#FFFFFF" transform="translate(0,0)"/>
<path d="" fill="#FFFFFF" transform="translate(0,0)"/>
<path d="" fill="#FFFFFF" transform="translate(0,0)"/>
<path d="" fill="#FFFFFF" transform="translate(0,0)"/>
<path d="" fill="#FFFFFF" transform="translate(0,0)"/>
<path d="" fill="#FFFFFF" transform="translate(0,0)"/>
<path d="" fill="#FFFFFF" transform="translate(0,0)"/>
<path d="" fill="#FFFFFF" transform="translate(0,0)"/>
<path d="" fill="#FFFFFF" transform="translate(0,0)"/>
<path d="" fill="#FFFFFF" transform="translate(0,0)"/>
<path d="" fill="#FFFFFF" transform="translate(0,0)"/>
<path d="" fill="#FFFFFF" transform="translate(0,0)"/>
</svg>
