<?xml version="1.0" standalone="no"?>
<!DOCTYPE svg PUBLIC "-//W3C//DTD SVG 20010904//EN"
 "http://www.w3.org/TR/2001/REC-SVG-20010904/DTD/svg10.dtd">
<svg version="1.0" xmlns="http://www.w3.org/2000/svg"
 width="486.000000pt" height="514.000000pt" viewBox="0 0 486.000000 514.000000"
 preserveAspectRatio="xMidYMid meet">

<g transform="translate(0.000000,514.000000) scale(0.100000,-0.100000)"
fill="#000000" stroke="none">
<path d="M1301 4431 c-19 -12 -6 -43 16 -39 10 2 18 12 18 22 0 22 -14 29 -34
17z"/>
<path d="M3050 4269 c-92 -8 -175 -36 -250 -87 -54 -36 -68 -42 -87 -33 -19 9
-28 2 -82 -66 -58 -72 -60 -78 -44 -95 15 -17 15 -23 -11 -98 -21 -59 -29
-101 -30 -160 -1 -75 -2 -80 -23 -80 -27 0 -73 -53 -66 -78 6 -26 -271 -471
-373 -599 -19 -23 -130 -185 -247 -360 -117 -175 -246 -364 -285 -421 -60 -86
-70 -106 -61 -121 10 -14 4 -28 -32 -77 -43 -57 -44 -62 -44 -133 l0 -73 44
-39 c52 -46 63 -21 -107 -238 -163 -208 -177 -235 -177 -336 0 -133 55 -228
168 -287 35 -19 58 -23 132 -23 78 0 97 4 140 27 54 28 75 49 151 148 28 36
74 97 104 135 94 123 172 206 214 227 57 30 156 30 212 1 47 -25 101 -82 120
-129 21 -49 18 -140 -6 -188 -11 -23 -146 -203 -301 -401 -406 -521 -402 -515
-388 -531 6 -8 17 -14 23 -14 20 0 125 129 426 520 41 54 121 155 176 226 133
169 148 198 148 294 1 99 -27 163 -101 230 -111 101 -283 107 -393 13 -40 -34
-185 -210 -295 -357 -69 -92 -125 -132 -199 -141 -104 -13 -198 38 -249 135
-26 49 -28 62 -24 123 5 80 5 80 194 320 69 86 131 157 138 157 7 0 18 -7 26
-16 32 -39 115 -58 137 -31 8 9 0 11 -36 9 -45 -3 -52 0 -149 73 -71 53 -105
85 -112 107 -11 31 -5 78 9 78 9 0 288 -214 305 -234 6 -6 22 -11 37 -11 27 1
50 22 89 83 17 27 26 32 45 28 19 -5 42 15 156 140 178 194 334 370 421 474
120 143 179 210 267 305 47 50 146 157 220 238 74 81 142 147 151 147 17 0 59
40 59 56 -1 5 -11 -3 -23 -18 l-23 -28 -46 38 c-25 20 -77 60 -114 89 -110 84
-498 384 -507 393 -5 4 2 20 15 34 23 28 23 28 48 9 14 -11 160 -125 325 -254
165 -130 307 -239 315 -244 13 -8 13 -7 1 8 -8 10 -12 19 -10 21 2 1 42 15 89
29 48 15 111 44 145 66 48 32 66 39 91 35 28 -5 34 0 82 62 56 73 60 85 37
104 -13 11 -13 15 0 41 8 15 22 72 31 125 38 223 -37 418 -210 546 -113 84
-242 120 -386 107z m60 -74 c0 -8 -4 -15 -10 -15 -5 0 -7 7 -4 15 4 8 8 15 10
15 2 0 4 -7 4 -15z m50 5 c0 -5 -4 -10 -10 -10 -5 0 -10 5 -10 10 0 6 5 10 10
10 6 0 10 -4 10 -10z m45 0 c3 -5 1 -10 -4 -10 -6 0 -11 5 -11 10 0 6 2 10 4
10 3 0 8 -4 11 -10z m-208 -26 c-3 -3 -12 -4 -19 -1 -8 3 -5 6 6 6 11 1 17 -2
13 -5z m-79 -44 c-5 -17 -14 -33 -20 -36 -6 -4 -5 3 1 15 7 12 9 25 6 30 -3 5
1 12 7 14 7 3 14 6 15 6 1 1 -3 -13 -9 -29z m72 19 c0 -4 -6 -9 -13 -12 -8 -3
-14 0 -14 7 0 7 6 13 14 13 7 0 13 -4 13 -8z m180 1 c0 -5 -7 -7 -15 -4 -8 4
-15 8 -15 10 0 2 7 4 15 4 8 0 15 -4 15 -10z m50 0 c0 -5 -4 -10 -10 -10 -5 0
-10 5 -10 10 0 6 5 10 10 10 6 0 10 -4 10 -10z m10 -420 c193 -151 360 -282
371 -290 18 -15 18 -16 -5 -44 l-23 -29 -39 29 c-190 142 -884 687 -884 694 0
19 19 19 44 -1 15 -12 30 -18 34 -15 3 4 -7 17 -23 30 -16 13 -25 28 -21 34 8
13 -3 21 546 -408z m-355 361 c-21 -43 -29 -39 -8 4 9 19 18 33 21 31 2 -2 -4
-18 -13 -35z m165 35 c0 -2 -8 -10 -17 -17 -16 -13 -17 -12 -4 4 13 16 21 21
21 13z m240 -16 c0 -5 -5 -10 -11 -10 -5 0 -7 5 -4 10 3 6 8 10 11 10 2 0 4
-4 4 -10z m45 0 c3 -5 1 -10 -4 -10 -6 0 -11 5 -11 10 0 6 2 10 4 10 3 0 8 -4
11 -10z m-95 -16 c0 -2 -7 -4 -15 -4 -8 0 -15 4 -15 10 0 5 7 7 15 4 8 -4 15
-8 15 -10z m-68 -1 c-6 -2 -9 -10 -6 -15 4 -7 2 -8 -5 -4 -13 9 -5 26 12 25 9
0 8 -2 -1 -6z m-52 -17 c0 -20 -17 -29 -26 -15 -5 8 -3 9 6 4 10 -6 12 -4 7 8
-3 10 -2 17 3 17 6 0 10 -6 10 -14z m-265 -173 c146 -115 379 -297 547 -427
l167 -129 -20 -29 c-11 -15 -24 -28 -28 -28 -7 0 -884 679 -910 705 -26 25 -2
37 30 14 39 -28 52 -15 14 15 -16 13 -25 28 -21 34 7 12 31 -6 221 -155z m123
153 c-2 0 -16 -12 -32 -26 -16 -14 -26 -19 -21 -11 15 25 40 48 48 43 5 -2 7
-5 5 -6z m320 2 c-2 -6 -10 -13 -16 -14 -9 -2 -9 -1 -1 3 8 4 7 8 -2 14 -11 7
-10 9 4 9 10 0 17 -5 15 -12z m52 0 c0 -4 -4 -8 -9 -8 -6 0 -12 4 -15 8 -3 5
1 9 9 9 8 0 15 -4 15 -9z m-447 -13 c-3 -9 -8 -14 -10 -11 -3 3 -2 9 2 15 9
16 15 13 8 -4z m337 -2 c0 -15 -2 -15 -9 -4 -7 11 -10 10 -14 -5 -4 -16 -5
-16 -6 4 -1 13 5 22 14 22 8 0 15 -8 15 -17z m-206 -34 c-3 -5 -11 -9 -17 -9
-7 0 -6 4 3 10 14 9 7 14 -13 11 -5 -1 -6 3 -2 9 5 8 11 8 21 -1 7 -6 11 -15
8 -20z m118 4 c-3 -16 -7 -22 -10 -15 -4 13 4 42 11 42 2 0 2 -12 -1 -27z
m202 -5 c-3 -4 -9 -8 -15 -8 -5 0 -9 4 -9 8 0 5 7 9 15 9 8 0 12 -4 9 -9z
m-244 -10 c0 -6 -3 -8 -6 -5 -4 3 -16 2 -28 -4 -20 -10 -20 -10 -2 5 24 19 36
20 36 4z m185 -10 c6 -4 2 -8 -7 -8 -10 0 -18 7 -18 17 0 9 3 12 8 7 4 -5 12
-12 17 -16z m-304 -11 c-10 -9 -11 -8 -5 6 3 10 9 15 12 12 3 -3 0 -11 -7 -18z
m249 8 c0 -8 -9 -19 -20 -25 -14 -7 -20 -7 -20 0 0 5 8 10 18 11 12 0 13 2 3
6 -11 5 -11 7 0 14 18 12 19 11 19 -6z m-84 -49 c-15 -30 -56 -64 -56 -47 0 5
9 13 20 16 18 6 25 23 21 48 -1 5 3 6 9 2 5 -3 10 -1 10 6 0 7 2 10 5 7 3 -3
-1 -17 -9 -32z m-136 14 c0 -5 -5 -10 -11 -10 -5 0 -7 5 -4 10 3 6 8 10 11 10
2 0 4 -4 4 -10z m40 -10 c0 -5 -5 -10 -11 -10 -5 0 -7 5 -4 10 3 6 8 10 11 10
2 0 4 -4 4 -10z m240 -4 c0 -20 -19 -31 -32 -18 -6 6 -7 15 -4 21 10 16 36 13
36 -3z m-107 -48 c-4 -22 -4 -23 11 -4 12 15 16 16 16 5 0 -8 -14 -23 -31 -33
-18 -11 -29 -14 -26 -9 4 6 11 22 16 37 13 32 21 34 14 4z m155 11 c-10 -5
-18 -15 -18 -20 0 -6 5 -7 12 -3 7 4 8 3 4 -4 -11 -18 -26 -14 -26 7 0 18 12
29 35 30 6 0 2 -4 -7 -10z m57 1 c3 -5 1 -10 -4 -10 -6 0 -11 5 -11 10 0 6 2
10 4 10 3 0 8 -4 11 -10z m-697 -55 c-6 -14 -15 -25 -20 -25 -5 0 -6 -5 -2
-12 4 -7 3 -8 -4 -4 -8 5 -5 16 10 37 27 36 31 37 16 4z m572 -3 c0 -5 -13
-18 -30 -30 -20 -15 -28 -17 -24 -7 3 8 14 17 25 20 10 4 19 11 19 16 0 5 2 9
5 9 3 0 5 -4 5 -8z m58 -27 c-6 -14 -13 -23 -15 -21 -5 5 15 46 22 46 3 0 -1
-11 -7 -25z m-613 -34 c-3 -5 -1 -12 5 -16 6 -4 8 -11 5 -16 -11 -17 -22 -9
-20 14 3 26 3 27 11 27 3 0 3 -4 -1 -9z m105 -11 c0 -5 -5 -10 -11 -10 -5 0
-7 5 -4 10 3 6 8 10 11 10 2 0 4 -4 4 -10z m553 -17 c-3 -7 -6 -13 -8 -13 -2
0 -5 6 -8 13 -3 8 1 14 8 14 7 0 11 -6 8 -14z m-713 -23 c0 -5 -6 -12 -12 -16
-7 -4 -10 -4 -6 1 4 4 3 14 -4 22 -8 11 -7 12 6 7 9 -3 16 -10 16 -14z m140
-9 c-12 -23 -25 -27 -35 -11 -3 5 0 7 9 4 9 -3 17 3 21 16 4 12 9 19 12 17 2
-3 0 -15 -7 -26z m503 4 c-3 -9 -8 -14 -10 -11 -3 3 -2 9 2 15 9 16 15 13 8
-4z m28 -28 c-10 -9 -11 -8 -5 6 3 10 9 15 12 12 3 -3 0 -11 -7 -18z m-612 -9
c0 -22 -1 -22 -9 -3 -5 11 -9 14 -9 8 -1 -7 -6 -13 -12 -13 -8 0 -8 5 1 15 18
22 30 18 29 -7z m104 -39 c-6 -6 -7 3 -4 23 4 28 6 29 9 9 2 -13 0 -27 -5 -32z
m37 44 c0 -5 -5 -15 -10 -23 -7 -12 -9 -10 -7 8 1 19 17 33 17 15z m70 -18
c-13 -14 -26 -23 -28 -20 -4 4 38 44 47 45 3 0 -6 -11 -19 -25z m-277 -4 c-6
-24 -32 -36 -29 -15 2 12 22 33 33 34 0 0 -1 -9 -4 -19z m122 -29 c-3 -3 -11
0 -18 7 -9 10 -8 11 6 5 10 -3 15 -9 12 -12z m149 -7 c-4 -8 -10 -13 -14 -10
-4 3 -10 -2 -14 -10 -3 -8 -11 -15 -17 -15 -7 0 0 11 15 25 31 29 38 31 30 10z
m68 -2 c-6 -2 -9 -10 -6 -15 4 -7 2 -8 -5 -4 -13 9 -5 26 12 25 9 0 8 -2 -1
-6z m-282 -14 c0 -4 -6 -9 -13 -12 -8 -3 -14 0 -14 7 0 7 6 13 14 13 7 0 13
-4 13 -8z m-60 -8 c0 -6 -4 -12 -8 -15 -5 -3 -9 1 -9 9 0 8 4 15 9 15 4 0 8
-4 8 -9z m315 -39 c-17 -15 -18 -15 -6 0 7 9 9 23 5 30 -6 10 -4 11 7 0 11
-10 10 -15 -6 -30z m-125 19 c0 -5 -10 -11 -22 -14 -22 -6 -22 -6 -4 8 23 17
26 18 26 6z m-70 -18 c0 -15 -2 -16 -10 -3 -8 13 -10 12 -10 -4 0 -11 -3 -17
-6 -13 -9 9 3 37 16 37 5 0 10 -8 10 -17z m126 -14 c3 -6 1 -16 -6 -22 -10 -9
-12 -8 -6 7 5 14 2 17 -9 12 -9 -3 -13 -2 -10 4 8 13 22 13 31 -1z m146 4 c-6
-3 -10 -8 -7 -13 4 -7 -8 -7 -33 -1 -12 3 11 17 30 18 13 0 17 -1 10 -4z
m-262 -246 c69 -54 169 -133 223 -174 53 -42 97 -79 97 -82 0 -4 -26 -33 -58
-64 l-59 -58 -43 36 c-31 26 -45 33 -51 24 -6 -10 -11 -10 -23 1 -9 7 -20 10
-24 6 -10 -11 50 -57 68 -51 8 2 25 -3 37 -13 22 -17 22 -17 2 -41 l-20 -24
-27 25 c-15 14 -143 114 -285 223 -141 108 -259 201 -262 205 -4 6 83 160 100
179 2 1 19 -9 38 -23 36 -28 51 -33 45 -15 -2 6 -7 10 -11 10 -13 -1 -57 50
-51 60 5 9 41 -17 304 -224z m47 213 c1 -11 -4 -20 -13 -20 -17 0 -19 26 -1
33 6 3 12 6 12 6 1 1 1 -8 2 -19z m283 10 c0 -5 -5 -10 -11 -10 -5 0 -7 5 -4
10 3 6 8 10 11 10 2 0 4 -4 4 -10z m31 -23 c-10 -9 -11 -8 -5 6 3 10 9 15 12
12 3 -3 0 -11 -7 -18z m-371 -2 c0 -8 -2 -15 -4 -15 -2 0 -6 7 -10 15 -3 8 -1
15 4 15 6 0 10 -7 10 -15z m324 -3 c2 -4 0 -14 -6 -22 -8 -12 -9 -12 -4 3 6
20 -4 22 -24 5 -12 -11 -12 -10 -1 5 14 18 27 22 35 9z m-204 -26 c0 -8 -6
-16 -14 -19 -12 -5 -14 6 -7 31 3 9 21 -1 21 -12z m-61 -23 c0 -11 -3 -13 -6
-5 -2 6 -9 10 -14 6 -5 -3 -9 0 -9 5 0 6 7 11 15 11 8 0 15 -8 14 -17z m185 5
c-3 -4 -12 -8 -20 -8 -8 0 -13 4 -10 8 3 5 12 9 20 9 8 0 13 -4 10 -9z m146 8
c0 -2 -7 -7 -16 -10 -8 -3 -12 -2 -9 4 6 10 25 14 25 6z m-213 -36 c1 -11 -4
-20 -13 -20 -17 0 -19 26 -1 33 6 3 12 6 12 6 1 1 1 -8 2 -19z m53 6 c0 -3 -4
-8 -10 -11 -5 -3 -10 -1 -10 4 0 6 5 11 10 11 6 0 10 -2 10 -4z m-113 -19 c0
-8 -6 -14 -14 -14 -17 0 -17 14 0 20 6 3 12 6 13 6 0 1 1 -5 1 -12z m193 9 c0
-3 -4 -8 -10 -11 -5 -3 -10 -1 -10 4 0 6 5 11 10 11 6 0 10 -2 10 -4z"/>
<path d="M3260 3930 c0 -5 5 -10 10 -10 6 0 10 5 10 10 0 6 -4 10 -10 10 -5 0
-10 -4 -10 -10z"/>
<path d="M2641 3317 c-6 -6 -11 -16 -10 -21 0 -6 43 -44 96 -84 88 -68 97 -73
112 -57 15 15 14 17 -6 33 -166 131 -180 141 -192 129z"/>
<path d="M2607 3274 c-3 -4 33 -38 81 -76 103 -81 119 -91 126 -79 4 5 -34 41
-84 81 -96 75 -112 85 -123 74z"/>
<path d="M1948 3913 c-3 -48 -3 -48 -43 -54 l-40 -5 40 -5 c40 -4 40 -4 45
-54 5 -49 23 -51 20 -2 -5 52 -2 56 48 60 l47 3 -47 2 -48 2 0 44 c0 61 -18
68 -22 9z"/>
<path d="M2540 3560 c0 -13 7 -20 20 -20 13 0 20 7 20 20 0 13 -7 20 -20 20
-13 0 -20 -7 -20 -20z"/>
<path d="M2810 3350 c0 -13 7 -20 20 -20 13 0 20 7 20 20 0 13 -7 20 -20 20
-13 0 -20 -7 -20 -20z"/>
<path d="M3081 3156 c-16 -19 -6 -36 20 -36 15 0 20 6 17 22 -4 27 -21 33 -37
14z"/>
<path d="M1199 2458 c-36 -40 -40 -95 -9 -123 11 -10 20 -13 20 -7 0 6 -4 14
-10 17 -20 12 -11 75 15 100 66 67 171 -20 125 -104 -13 -25 -64 -45 -97 -37
-21 5 -24 4 -13 -4 37 -24 114 5 137 51 9 18 10 35 2 62 -22 80 -115 105 -170
45z"/>
<path d="M3240 1756 l0 -45 -42 -3 c-24 -2 -43 -7 -43 -13 0 -5 19 -11 43 -13
l42 -3 0 -47 c0 -56 17 -46 22 13 3 38 4 40 38 40 51 0 53 19 3 23 l-43 3 0
45 c0 24 -4 44 -10 44 -5 0 -10 -20 -10 -44z"/>
</g>
</svg>
